<?xml version="1.0" encoding="utf-8"?>
<!-- Generator: Adobe Illustrator 24.0.1, SVG Export Plug-In . SVG Version: 6.00 Build 0)  -->
<svg version="1.1" xmlns="http://www.w3.org/2000/svg" xmlns:xlink="http://www.w3.org/1999/xlink" x="0px" y="0px"
	 viewBox="0 0 2834.6 2834.6" style="enable-background:new 0 0 2834.6 2834.6;" xml:space="preserve">
<style type="text/css">
	.st0{fill:#A8D5E2;}
	.st1{fill:#FFFFFF;}
	.st2{fill:#286F97;}
	.st3{fill:none;stroke:#297098;stroke-width:13.9194;stroke-linecap:round;stroke-linejoin:round;stroke-miterlimit:10;}
	.st4{fill:#FFFFFF;stroke:#297098;stroke-width:13.9194;stroke-linecap:round;stroke-linejoin:round;stroke-miterlimit:10;}
	.st5{fill:none;stroke:#297098;stroke-width:44.9704;stroke-linecap:round;stroke-linejoin:round;stroke-miterlimit:10;}
	.st6{fill:#297098;stroke:#297098;stroke-width:25.6974;stroke-linecap:round;stroke-linejoin:round;stroke-miterlimit:10;}
	.st7{fill:#FFFFFF;stroke:#297098;stroke-width:9.8519;stroke-linecap:round;stroke-linejoin:round;stroke-miterlimit:10;}
	.st8{fill:#297098;stroke:#297098;stroke-width:13.9194;stroke-linecap:round;stroke-linejoin:round;stroke-miterlimit:10;}
	.st9{fill:none;stroke:#297098;stroke-width:14;stroke-linecap:round;stroke-linejoin:round;stroke-miterlimit:10;}
	.st10{fill:#297098;stroke:#297098;stroke-miterlimit:10;}
</style>
<g id="Слой_4">
	<path class="st0" d="M812.4,2314.9c0,0-461.4-426.6-263.4-670.2s451.5-119.4,464.6-328.2s-199.1-307.7-71.1-487.9
		s973.3,26.1,1169.6,174.5s-47.6,508.8,107.1,680.7s201.4,247.5,201.4,247.5v383.6H812.4z"/>
</g>
<g id="Слой_5">
	<polygon class="st1" points="1280.1,798 1280.1,1059.6 1294.1,1122.7 1347,1159.5 1370.7,1166.9 1364.3,1314.9 1401.3,1357.5 
		1477.2,1380.4 1562,1357.5 1646.5,1308 1646.5,1021.8 1702.3,1003.1 1728.5,949.4 1717.3,912.9 1663.1,895.6 1640.7,915.7 
		1628.7,972.6 1597.5,972.6 1586.4,926.3 1586.4,884.4 1549.9,859.2 1534.4,831.9 1454.1,852 1370.7,843 	"/>
	<path class="st1" d="M1617,972.6c2.4-4.9,15.3-23.2,15.3-23.2l19.6-49.1l67,7l14.1-27.3"/>
	<path class="st1" d="M1740.2,847.4c5-117-11.7-120.3-11.7-120.3l-15-44.8l-137.9,8.7l-154.2,17.5l114.8,129l45,169.5l124.5-54.1
		L1740.2,847.4z"/>
	<path class="st1" d="M1217.8,693.7c0,0,21.6,60.8,50.6,94.4c29,33.6,95.9,77.9,95.9,77.9l271-21.3l-59.6-153.7L1217.8,693.7z"/>
	<path class="st1" d="M479.9,1764.7l115.2-27.1l19.7,91.9l52.5-48l213,341.1c0,0-45.1-48.4-39.1-74.3c6-26,45.7-202.7,45.7-202.7
		s41.7-135.8,120.3-264s225.9-215.4,255-228.2c29.1-12.7,102.1-38.3,102.1-38.3l144.3,28.2l137.9-35c0,0,142.3,22.6,227.5,86.2
		c85.2,63.7,141,106.3,228.6,234.6s133.5,347,133.5,347s39.6,244.8,36.2,338.9H636.1l-101.5-277.7L479.9,1764.7z"/>
	<path class="st2" d="M1340.6,1324.2l23.7-9.3c0,0,12.4,47.6,69.2,59.6c56.9,12,183.5-26.3,203.3-59.6l49.6,1.6
		c0,0-108.4,144.4-141.3,152.6c-32.9,8.2-65.7-35.5-65.7-35.5l-39.7-47.7c0,0-88.2,53.9-99.1,45.3c-10.9-8.6-15.8-40.6-12.8-50.9
		C1330.7,1370.1,1340.6,1324.2,1340.6,1324.2z"/>
</g>
<g id="Слой_7">
	<polygon class="st1" points="466.2,1758.8 499.6,1863 451.6,1862.7 493.6,2045.8 543.9,2178.4 645.1,2314.9 756.3,2298 
		493.6,1735.8 	"/>
	<path class="st1" d="M1706.7,670.6c0,0-3.8-33.4-51.7-43c-47.8-9.6-89-5.3-89-5.3s-13.4-55-45.1-62c-31.7-7-52.2-4-52.2-4
		s2.4-55.4-74.3-62.2s-149.8,67.4-149.8,67.4l-29.7,77.5l2.9,76.6l146.5,36.8l364.2-32.7L1706.7,670.6z"/>
</g>
<g id="Слой_3">
	<polyline class="st3" points="1733.1,737.2 2420.6,737.2 2420.6,1082.2 	"/>
	<polyline class="st3" points="549,915.7 549,737.2 1231,737.2 	"/>
	<line class="st3" x1="549" y1="737.2" x2="1231" y2="737.2"/>
	<polyline class="st4" points="2226.1,1252.4 2226.1,1142.8 2284.7,1082.2 2579.8,1082.2 2579.8,1547.6 2226.1,1547.6 
		2226.1,1501.3 	"/>
	<line class="st5" x1="2272.4" y1="1201.2" x2="2530.8" y2="1201.2"/>
	<line class="st5" x1="2273.7" y1="1290.8" x2="2532.2" y2="1290.8"/>
	<line class="st5" x1="2273.7" y1="1380.4" x2="2532.2" y2="1380.4"/>
	<line class="st5" x1="2273.7" y1="1464.5" x2="2532.2" y2="1464.5"/>
	<line class="st3" x1="1280.1" y1="859.2" x2="1280.1" y2="798"/>
	<path class="st3" d="M1508.6,1158.5c-30,9.1-90.3,16.6-128.1,10.4c-54.7-9-100.4-44.9-100.4-100.4v-65.4"/>
	<path class="st3" d="M1646.5,1308v-286.3c45.4-0.7,82-37.7,82-83.3v0c0-23.3-15.3-31.2-42.2-40"/>
	<line class="st3" x1="1364.3" y1="1165.3" x2="1364.3" y2="1314.9"/>
	<circle class="st3" cx="1454.1" cy="953" r="71.9"/>
	<circle class="st4" cx="1280.1" cy="931.1" r="71.9"/>
	<path class="st3" d="M1336,1069.1c0,0,23.1,30.1,91.2,7.4"/>
	<path class="st3" d="M1347,905.5c0,0,18.6-12.5,47.3,7.5"/>
	<path class="st3" d="M1534.4,831.9c0,0,16.7,45.4,52,52.5c0,0-5.2,82.3,18.2,87.3c23.4,5,24.8-10.6,27.7-22
		c2.8-11.4,5.7-46.7,24.8-51.8c19.2-5.1,63.5,12.6,68.1-0.7c35.5-102.7,6-245.7-70.2-269.6c-77.1-24.1-116.3,0-117.1,24.8
		c-0.7,24.8,50.4,17,21.3-49.7s-100.7-58.9-132-19.2c-31.2,39.7,19.9,61,33.3,29.8c13.5-31.2,21.3-102.2-50.4-117.1
		c-71.7-14.9-143.3,29.8-175.9,78.7c-32.6,49-26.2,152.3,24.1,203.6c45.3,46.2,139,90.1,227.7,68.1c88.7-22,95.8-49.7,95.8-49.7"/>
	<path class="st3" d="M1657.1,972.6c0,0,9.5-44.9,39.3-46.4"/>
	<path class="st3" d="M1683.2,972.6c0,0,0.7-24.5-12.9-30.2"/>
	<path class="st3" d="M860.2,2093.5c0,0-38.2-58.4-71.3-106.2c-37.1-53.6-121.7-205.9-121.7-205.9l-0.1,0
		c-60,51.8-136.4,80.6-215.6,81.3h0c0,0,32.6,199.8,92.3,315.7c29.5,57.3,92.2,136.5,92.2,136.5"/>
	<line class="st3" x1="1122.5" y1="2048.1" x2="1122.5" y2="2314.9"/>
	<polygon class="st6" points="377.4,1357.5 530.7,1773.2 756.3,1773.2 601.6,1357.5 	"/>
	<path class="st4" d="M507.3,1722.9l110.4-24.8c15.1-3.4,24.7-18,21.5-32.5c-3.3-14.6-18.2-23.6-33.3-20.2l-110.4,24.8"/>
	<path class="st4" d="M482.9,1614.6l125.5-28.2c14.9-3.3,24.9-17.7,22.1-32.7c-2.9-15.7-18.3-25.7-33.8-22.2l-126.2,28.4l-5.8,1.3h0
		c-47.2,10.6-76.9,57.5-66.3,104.7l10.6,47.3c10.6,47.2,57.5,76.9,104.7,66.3l5.8-1.3"/>
	<path class="st4" d="M470.6,1559.8l-5.8,1.3c-47.2,10.6-76.9,57.5-66.3,104.7l10.6,47.3c10.6,47.2,57.5,76.9,104.7,66.3h0l5.8-1.3
		l89.7-20.1c15.1-3.4,24.6-18.4,21.2-33.6v0c-3.4-15.1-18.4-24.6-33.6-21.2l-89.7,20.1"/>
	<line class="st3" x1="466.2" y1="1780.3" x2="493.6" y2="1857.9"/>
	<polyline class="st3" points="2283.4,1083.5 2283.4,1142.4 2226.1,1142.8 	"/>
	<rect x="2112.1" y="1252.4" class="st4" width="214.3" height="248.9"/>
	<rect x="2136.2" y="1289.9" class="st4" width="166.7" height="53.2"/>
	<rect x="2136.2" y="1365.7" class="st7" width="40.4" height="40.4"/>
	<rect x="2200.5" y="1365.7" class="st7" width="40.4" height="40.4"/>
	<rect x="2263.3" y="1365.7" class="st7" width="40.4" height="40.4"/>
	<rect x="2135.5" y="1428.7" class="st7" width="40.4" height="40.4"/>
	<rect x="2199.8" y="1428.7" class="st7" width="40.4" height="40.4"/>
	<rect x="2262.5" y="1428.7" class="st7" width="40.4" height="40.4"/>
	<rect x="1336" y="1884" class="st4" width="849" height="534.9"/>
	<rect x="1459.9" y="2112.4" class="st8" width="96.8" height="234.6"/>
	<rect x="1702.3" y="2048.1" class="st8" width="96.8" height="298.9"/>
	<rect x="1945.2" y="1956.8" class="st8" width="96.8" height="390.2"/>
	<path class="st3" d="M841.1,2062.5c25.5-187.6,76.3-328.3,136.7-433.6c159.8-278.8,386.6-310.1,386.6-310.1s25,48.9,88.6,58
		c44.3,6.4,107.3-6.6,193.6-68.8c0,0,608.3,49.5,625.9,1006.8"/>
	<line class="st3" x1="549" y1="1357.5" x2="549" y2="1191.9"/>
	<path class="st3" d="M1687.5,1314.9c0,0-105.1,160-161.7,158.8c-31.9-0.7-87-93.2-87-93.2s-78.7,64.1-102.7,48.9
		c-20.7-13.1,0-98.1,0-98.1"/>
	<path class="st3" d="M1733.1,737.2"/>
	<path class="st3" d="M1231,737.2"/>
	<polyline class="st3" points="1336,2314.9 549,2314.9 549,2191.3 	"/>
	<line class="st3" x1="549" y1="1357.5" x2="549" y2="1191.9"/>
	<line class="st3" x1="595.1" y1="1764.7" x2="614.8" y2="1815.9"/>
	<polyline class="st9" points="1385.9,2347 1622.1,2191.3 1740.2,2253.1 2136.2,1948.6 	"/>
	<polyline class="st3" points="2420.6,1547.6 2420.6,2314.9 2185,2314.9 	"/>
	<path class="st10" d="M1364.3,1236.7c0,0,127.1-19.2,150.8-78.3c0,0-108.5,21.7-144.4,8.5L1364.3,1236.7z"/>
	<line class="st3" x1="1520.9" y1="926.3" x2="1651.9" y2="900.3"/>
	<path class="st4" d="M495.2,1669.4L639,1637c14.9-3.3,24.9-17.7,22.1-32.7c-2.9-15.7-18.3-25.7-33.8-22.2l-144.5,32.5"/>
	<path class="st3" d="M429.5,907.3"/>
	<polygon class="st4" points="254.8,915.7 254.8,1191.9 406,1191.9 454.3,1261.1 502.5,1191.9 677.6,1191.9 677.6,915.7 	"/>
	<g>
		<g>
			<path class="st10" d="M442.9,1142.6v-21.7c-15.2-0.6-30.2-4.9-38.7-9.8l6.8-26.6c9.7,5.1,23.1,10,37.9,10
				c13,0,21.9-5.1,21.9-14.1c0-8.7-7.3-14.1-24.3-19.8c-24.4-8.2-41-19.7-41-41.7c0-20.2,14.1-35.9,38.5-40.6v-21.7h22.4v20.1
				c15.1,0.5,25.4,3.9,33,7.4l-6.8,25.8c-5.8-2.6-16.4-7.9-32.7-7.9c-14.7,0-19.5,6.5-19.5,12.9c0,7.4,7.9,12.3,27.3,19.5
				c27.1,9.5,38,22.1,38,42.8c0,20.3-14.2,37.4-40.4,42v23.4H442.9z"/>
		</g>
	</g>
</g>
</svg>
